<svg xmlns="http://www.w3.org/2000/svg" height="24px" viewBox="0 -960 960 960" width="24px" fill="#FFFFFF"><path d="m480-305 74-74-54-54h162v-106H500l54-54-74-74-180 182 180 180ZM194-94q-45 0-75.5-30.5T88-200v-570q0-45 30.5-75.5T194-876h144q23-37 60.5-59.5T480-958q44 0 81.5 22.5T622-876h144q45 0 75.5 30.5T872-770v570q0 45-30.5 75.5T766-94H194Zm0-106h572v-570H194v570Zm307.5-614.5Q510-823 510-836t-8.5-21.5Q493-866 480-866t-21.5 8.5Q450-849 450-836t8.5 21.5Q467-806 480-806t21.5-8.5ZM194-200v-570 570Z"/></svg>