<svg xmlns="http://www.w3.org/2000/svg" height="24px" viewBox="0 -960 960 960" width="24px" fill="#FFFFFF"><path d="M196-806v652-652 228-228Zm0 758q-43.73 0-74.86-31.14Q90-110.28 90-154v-652q0-43.72 31.14-74.86Q152.27-912 196-912h312l282 281v99q-24-11-50.5-17.5t-55.5-7.52V-578H456v-228H196v652h240q18 33 44.5 60T539-48H196Zm542-174q25-25 25-62t-25.23-62q-25.23-25-61.77-25-36.54 0-61.77 25.23Q589-320.54 589-284q0 36.54 25 61.77Q639-197 676-197t62-25ZM880-6 770-115q-21 12-44.5 18T676-91q-81 0-137-56t-56-137q0-81 56-137t137-56q81 0 137 56t56 137q0 26-6 49.5T845-190L954-80 880-6Z"/></svg>