<svg xmlns="http://www.w3.org/2000/svg" height="24px" viewBox="0 -960 960 960" width="24px" fill="#FFFFFF"><path d="M363.5-463.42Q316-510.84 316-579.92t47.42-116.58q47.42-47.5 116.5-47.5t116.58 47.42q47.5 47.42 47.5 116.5T596.58-463.5Q549.16-416 480.08-416T363.5-463.42ZM521-539q17-17 17-41t-17-41q-17-17-41-17t-41 17q-17 17-17 41t17 41q17 17 41 17t41-17ZM480.02-46Q328-81 229-216.06 130-351.11 130-516v-266l350-132 350 132v265.57Q830-351 731.02-216t-251 170ZM480-479Zm0-322-244 91.94V-516q0 51.58 13 100.29Q262-367 286-324q45-23 94-34.5T480-370q51 0 100 11.5t94 34.5q24-43 37-91.71 13-48.71 13-100.29v-193.06L480-801Zm-66.5 543.5Q381-251 351-237q27.66 27.97 60.09 48.49Q443.51-168 479.76-156q36.24-12 68.84-32.51Q581.2-209.03 609-237q-30-14-62.3-20.5t-66.5-6.5q-34.2 0-66.7 6.5Z"/></svg>